<svg width="67" height="44" viewBox="0 0 67 44" fill="none" xmlns="http://www.w3.org/2000/svg">
<path d="M13.6787 10.1661H3.41968C1.53885 10.1661 0 8.64356 0 6.7827C0 4.92183 1.53885 3.39931 3.41968 3.39931H13.6787C15.5595 3.39931 17.0984 4.92183 17.0984 6.7827C17.0984 8.64356 15.5595 10.1661 13.6787 10.1661ZM13.6787 20.3163H3.41968C1.53885 20.3163 0 21.8388 0 23.6997C0 25.5605 1.53885 27.083 3.41968 27.083H13.6787C15.5595 27.083 17.0984 25.5605 17.0984 23.6997C17.0984 21.8388 15.5595 20.3163 13.6787 20.3163ZM61.1438 41.5978L50.4744 31.0416C47.5335 32.9363 44.0112 34.019 40.2154 33.816C32.1108 33.4438 25.1688 27.1845 24.0745 19.2336C23.7134 16.5909 23.9871 13.9012 24.8735 11.3829C25.76 8.8645 27.2341 6.58841 29.1763 4.73937C31.1184 2.89032 33.4739 1.52043 36.0515 0.740876C38.629 -0.0386724 41.3561 -0.205905 44.0112 0.252753C50.6796 1.36927 56.2195 6.51203 57.6899 13.042C58.8184 17.9817 57.7241 22.5831 55.2962 26.2372L65.9997 36.8272C67.3334 38.1467 67.3334 40.2783 65.9997 41.5978C64.6661 42.9173 62.4775 42.9173 61.1438 41.5978ZM51.2951 16.9329C51.2951 11.3503 46.6786 6.7827 41.0361 6.7827C35.3936 6.7827 30.7771 11.3503 30.7771 16.9329C30.7771 22.5155 35.3936 27.083 41.0361 27.083C46.6786 27.083 51.2951 22.5155 51.2951 16.9329ZM3.41968 44H30.7771C32.6579 44 34.1968 42.4775 34.1968 40.6166C34.1968 38.7557 32.6579 37.2332 30.7771 37.2332H3.41968C1.53885 37.2332 0 38.7557 0 40.6166C0 42.4775 1.53885 44 3.41968 44Z" fill="white"/>
</svg>
