<svg width="26" height="33" viewBox="0 0 26 33" fill="none" xmlns="http://www.w3.org/2000/svg">
<path d="M0.345774 3.32063C3.64658 8.6625 9.74162 18.5625 9.74162 18.5625V30.9375C9.74162 32.0719 10.477 33 11.3757 33H14.6438C15.5425 33 16.2779 32.0719 16.2779 30.9375V18.5625C16.2779 18.5625 22.3566 8.6625 25.6574 3.32063C25.8447 3.01614 25.9604 2.6514 25.9915 2.26794C26.0226 1.88447 25.9678 1.49769 25.8332 1.15164C25.6987 0.805587 25.4899 0.514167 25.2306 0.310564C24.9713 0.106961 24.6719 -0.000643573 24.3665 2.89583e-06H1.63668C0.280411 2.89583e-06 -0.487597 1.95938 0.345774 3.32063Z" fill="#4A14BC"/>
</svg>
