<svg width="207" height="147" viewBox="0 0 207 147" fill="none" xmlns="http://www.w3.org/2000/svg">
<path d="M2.98438 117.906H9.48438L14.9844 126.5L20.4844 117.906H27.1406V140H19.9844V128L14.8281 136.734H13.3125L7.98438 128V140H2.98438V117.906ZM51.0938 140H44.3594L44.5 138.922C44.5417 138.589 44.5781 138.214 44.6094 137.797C44.6406 137.38 44.6667 136.948 44.6875 136.5C44.375 137.115 43.9792 137.667 43.5 138.156C43.0312 138.635 42.5104 139.047 41.9375 139.391C41.3646 139.734 40.7552 139.995 40.1094 140.172C39.4635 140.359 38.8125 140.453 38.1562 140.453C37.3438 140.453 36.5729 140.318 35.8438 140.047C35.1146 139.786 34.4688 139.37 33.9062 138.797C33.3542 138.214 32.9115 137.469 32.5781 136.562C32.2552 135.646 32.0938 134.542 32.0938 133.25V123.141H38.8438V132.625C38.8438 133.271 38.901 133.812 39.0156 134.25C39.1406 134.688 39.3073 135.042 39.5156 135.312C39.724 135.583 39.9635 135.781 40.2344 135.906C40.5052 136.021 40.7917 136.078 41.0938 136.078C41.4479 136.078 41.8021 136.005 42.1562 135.859C42.5208 135.714 42.849 135.516 43.1406 135.266C43.4427 135.016 43.6979 134.724 43.9062 134.391C44.125 134.047 44.2708 133.682 44.3438 133.297V123.141H51.0938V140ZM55.9844 116H62.7344V140H55.9844V116ZM76 140.453C75.0312 140.453 74.1042 140.333 73.2188 140.094C72.3333 139.865 71.5521 139.474 70.875 138.922C70.2083 138.359 69.6719 137.62 69.2656 136.703C68.8698 135.776 68.6719 134.625 68.6719 133.25V127.016H65.5625V126L72.9219 118H75.4219V123.141H80.4219C80.2969 123.766 80.1823 124.396 80.0781 125.031C79.9844 125.667 79.9323 126.328 79.9219 127.016H75.4219V133.188C75.4219 133.562 75.4479 133.927 75.5 134.281C75.5625 134.625 75.6823 134.932 75.8594 135.203C76.0365 135.464 76.2917 135.677 76.625 135.844C76.9583 136 77.401 136.078 77.9531 136.078C78.3073 136.078 78.6979 136.047 79.125 135.984C79.5521 135.911 80.0365 135.781 80.5781 135.594L80.9531 139.641C80.2969 139.88 79.5417 140.073 78.6875 140.219C77.8438 140.375 76.9479 140.453 76 140.453ZM84.2969 117.906H90.7969L96.2969 126.5L101.797 117.906H108.453V140H101.297V128L96.1406 136.734H94.625L89.2969 128V140H84.2969V117.906ZM117.641 140.453C116.974 140.453 116.333 140.359 115.719 140.172C115.115 139.984 114.578 139.698 114.109 139.312C113.641 138.927 113.266 138.443 112.984 137.859C112.714 137.266 112.578 136.568 112.578 135.766C112.578 134.995 112.703 134.328 112.953 133.766C113.203 133.193 113.536 132.703 113.953 132.297C114.38 131.891 114.875 131.557 115.438 131.297C116.01 131.026 116.615 130.818 117.25 130.672C117.885 130.516 118.536 130.411 119.203 130.359C119.88 130.297 120.536 130.266 121.172 130.266C121.609 130.266 122.031 130.276 122.438 130.297C122.844 130.318 123.224 130.344 123.578 130.375C123.557 129.719 123.432 129.177 123.203 128.75C122.974 128.312 122.672 127.969 122.297 127.719C121.922 127.458 121.484 127.276 120.984 127.172C120.484 127.068 119.958 127.016 119.406 127.016C118.896 127.016 118.37 127.052 117.828 127.125C117.297 127.188 116.776 127.271 116.266 127.375C115.755 127.469 115.266 127.573 114.797 127.688C114.339 127.802 113.932 127.906 113.578 128V123.625C114.089 123.51 114.635 123.401 115.219 123.297C115.812 123.182 116.427 123.083 117.062 123C117.698 122.917 118.344 122.849 119 122.797C119.667 122.745 120.323 122.719 120.969 122.719C121.771 122.719 122.557 122.771 123.328 122.875C124.109 122.969 124.844 123.13 125.531 123.359C126.229 123.589 126.87 123.896 127.453 124.281C128.047 124.667 128.552 125.146 128.969 125.719C129.396 126.281 129.729 126.948 129.969 127.719C130.208 128.49 130.328 129.38 130.328 130.391V140H123.891V137.203C123.641 137.714 123.292 138.172 122.844 138.578C122.396 138.974 121.891 139.312 121.328 139.594C120.766 139.875 120.167 140.089 119.531 140.234C118.896 140.38 118.266 140.453 117.641 140.453ZM120.281 136.781C120.573 136.781 120.906 136.703 121.281 136.547C121.667 136.38 122.026 136.13 122.359 135.797C122.703 135.464 122.99 135.042 123.219 134.531C123.458 134.021 123.578 133.411 123.578 132.703H123.062C122.562 132.703 122.047 132.755 121.516 132.859C120.995 132.964 120.516 133.12 120.078 133.328C119.641 133.536 119.281 133.792 119 134.094C118.719 134.396 118.578 134.745 118.578 135.141C118.578 135.453 118.63 135.714 118.734 135.922C118.839 136.13 118.969 136.302 119.125 136.438C119.292 136.562 119.474 136.651 119.672 136.703C119.88 136.755 120.083 136.781 120.281 136.781ZM134.859 123.141H141.281C141.26 123.411 141.245 123.714 141.234 124.047C141.224 124.37 141.219 124.714 141.219 125.078C141.219 125.432 141.219 125.792 141.219 126.156C141.219 126.521 141.219 126.87 141.219 127.203C141.427 126.693 141.698 126.172 142.031 125.641C142.365 125.099 142.755 124.615 143.203 124.188C143.661 123.76 144.177 123.411 144.75 123.141C145.333 122.859 145.984 122.719 146.703 122.719C146.839 122.719 146.984 122.729 147.141 122.75C147.307 122.76 147.469 122.781 147.625 122.812C147.781 122.844 147.927 122.885 148.062 122.938C148.208 122.979 148.328 123.031 148.422 123.094L147.875 129.531C147.406 129.354 146.911 129.224 146.391 129.141C145.87 129.047 145.417 129 145.031 129C144.5 129 144.031 129.068 143.625 129.203C143.229 129.328 142.891 129.495 142.609 129.703C142.328 129.911 142.104 130.141 141.938 130.391C141.781 130.641 141.672 130.885 141.609 131.125V140H134.859V123.141ZM164.203 123.141H171.125L164.703 131.078L171.438 140H163.625L158.547 132.047L158.016 132.594V140H151.266V116H158.016V130.656L164.203 123.141ZM187.984 139.328C187.005 139.651 185.948 139.917 184.812 140.125C183.677 140.344 182.495 140.453 181.266 140.453C179.922 140.453 178.641 140.276 177.422 139.922C176.203 139.568 175.13 139.016 174.203 138.266C173.276 137.516 172.536 136.568 171.984 135.422C171.443 134.266 171.172 132.891 171.172 131.297C171.172 130.391 171.312 129.552 171.594 128.781C171.875 128 172.255 127.292 172.734 126.656C173.224 126.021 173.792 125.458 174.438 124.969C175.094 124.479 175.792 124.068 176.531 123.734C177.281 123.401 178.052 123.151 178.844 122.984C179.635 122.807 180.411 122.719 181.172 122.719C182.37 122.719 183.427 122.854 184.344 123.125C185.26 123.385 186.021 123.74 186.625 124.188C187.24 124.635 187.703 125.156 188.016 125.75C188.328 126.344 188.484 126.974 188.484 127.641C188.484 128.453 188.344 129.146 188.062 129.719C187.792 130.292 187.422 130.776 186.953 131.172C186.495 131.557 185.958 131.865 185.344 132.094C184.74 132.312 184.099 132.484 183.422 132.609C182.745 132.724 182.052 132.797 181.344 132.828C180.646 132.859 179.979 132.875 179.344 132.875C179.125 132.875 178.911 132.875 178.703 132.875C178.505 132.865 178.307 132.859 178.109 132.859C178.193 133.453 178.354 133.953 178.594 134.359C178.844 134.766 179.151 135.099 179.516 135.359C179.891 135.609 180.318 135.792 180.797 135.906C181.286 136.01 181.807 136.062 182.359 136.062C182.776 136.062 183.219 136.031 183.688 135.969C184.167 135.906 184.646 135.823 185.125 135.719C185.615 135.604 186.099 135.479 186.578 135.344C187.068 135.198 187.536 135.047 187.984 134.891V139.328ZM177.969 130.453C178.219 130.443 178.536 130.427 178.922 130.406C179.318 130.385 179.734 130.349 180.172 130.297C180.609 130.245 181.047 130.172 181.484 130.078C181.922 129.984 182.318 129.865 182.672 129.719C183.026 129.573 183.312 129.391 183.531 129.172C183.75 128.953 183.859 128.688 183.859 128.375C183.859 127.844 183.646 127.422 183.219 127.109C182.802 126.786 182.219 126.625 181.469 126.625C181.125 126.625 180.755 126.677 180.359 126.781C179.964 126.875 179.594 127.062 179.25 127.344C178.906 127.625 178.615 128.016 178.375 128.516C178.135 129.016 178 129.661 177.969 130.453ZM201.031 140.453C200.062 140.453 199.135 140.333 198.25 140.094C197.365 139.865 196.583 139.474 195.906 138.922C195.24 138.359 194.703 137.62 194.297 136.703C193.901 135.776 193.703 134.625 193.703 133.25V127.016H190.594V126L197.953 118H200.453V123.141H205.453C205.328 123.766 205.214 124.396 205.109 125.031C205.016 125.667 204.964 126.328 204.953 127.016H200.453V133.188C200.453 133.562 200.479 133.927 200.531 134.281C200.594 134.625 200.714 134.932 200.891 135.203C201.068 135.464 201.323 135.677 201.656 135.844C201.99 136 202.432 136.078 202.984 136.078C203.339 136.078 203.729 136.047 204.156 135.984C204.583 135.911 205.068 135.781 205.609 135.594L205.984 139.641C205.328 139.88 204.573 140.073 203.719 140.219C202.875 140.375 201.979 140.453 201.031 140.453Z" fill="white"/>
<path d="M77.5 0C57.1667 33.3333 16.2 100.3 15 101.5L87 101L98.5 81.5L90 68L78.5 86H43.5L77 30L121.121 101H192.5L131 0.5L108.5 37.5L117.5 52.5L131 30L166 86H130L77.5 0Z" fill="white"/>
</svg>
