<svg width="33" height="33" viewBox="0 0 33 33" fill="none" xmlns="http://www.w3.org/2000/svg">
<rect width="33" height="33" rx="12" fill="#4A148C"/>
<path d="M13.7501 26.125V19.25H19.2501V26.125C19.2501 26.8812 19.8688 27.5 20.6251 27.5H24.7501C25.5063 27.5 26.1251 26.8812 26.1251 26.125V16.5H28.4626C29.0951 16.5 29.3976 15.7162 28.9163 15.3037L17.4213 4.94999C16.8988 4.48249 16.1013 4.48249 15.5788 4.94999L4.08382 15.3037C3.61632 15.7162 3.90507 16.5 4.53757 16.5H6.87507V26.125C6.87507 26.8812 7.49382 27.5 8.25007 27.5H12.3751C13.1313 27.5 13.7501 26.8812 13.7501 26.125Z" fill="white"/>
</svg>
