<svg width="32" height="32" viewBox="0 0 32 32" fill="none" xmlns="http://www.w3.org/2000/svg">
<path d="M22.8702 20.1258H21.4248L20.9125 19.6318C22.7677 17.4803 23.7872 14.7334 23.785 11.8925C23.785 9.5404 23.0875 7.2411 21.7808 5.28539C20.474 3.32968 18.6166 1.80538 16.4436 0.905269C14.2705 0.00515284 11.8793 -0.230358 9.5724 0.228517C7.26548 0.687392 5.14644 1.82004 3.48324 3.48324C1.82004 5.14644 0.687392 7.26548 0.228517 9.5724C-0.230358 11.8793 0.00515284 14.2705 0.905269 16.4436C1.80538 18.6166 3.32968 20.474 5.28539 21.7808C7.2411 23.0875 9.5404 23.785 11.8925 23.785C14.8382 23.785 17.546 22.7055 19.6318 20.9125L20.1258 21.4248V22.8702L29.2739 32L32 29.2739L22.8702 20.1258ZM11.8925 20.1258C7.33677 20.1258 3.65924 16.4483 3.65924 11.8925C3.65924 7.33677 7.33677 3.65924 11.8925 3.65924C16.4483 3.65924 20.1258 7.33677 20.1258 11.8925C20.1258 16.4483 16.4483 20.1258 11.8925 20.1258Z" fill="#4A148C"/>
</svg>
